<svg width="32" height="32" viewBox="0 0 32 32" fill="none" xmlns="http://www.w3.org/2000/svg">
<g clip-path="url(#clip0_125_11680)">
<mask id="mask0_125_11680" style="mask-type:luminance" maskUnits="userSpaceOnUse" x="0" y="8" width="32" height="16">
<path d="M31.5545 8.44141H0.443359V23.997H31.5545V8.44141Z" fill="white"/>
</mask>
<g mask="url(#mask0_125_11680)">
<path d="M17.65 14.4743C16.4399 14.5048 15.2262 14.4844 14.0161 14.4862C13.9667 14.4862 13.9156 14.4862 13.8662 14.4862C12.5483 14.4862 11.2285 14.498 9.91245 14.4794C9.44268 14.4709 9.26534 14.6049 9.27999 15.017C9.30924 15.787 9.31655 16.5569 9.2745 17.3269C9.24892 17.8256 9.49569 17.9375 10.0166 17.9239C10.9964 17.9019 11.978 17.9171 12.9614 17.9256C13.1735 17.9273 13.4659 17.8256 13.5774 18.029C13.6852 18.2309 13.5134 18.4361 13.3891 18.6244C13.0126 19.2044 12.3527 19.4876 11.7257 19.798C8.51042 21.382 4.4616 19.3434 4.43052 16.1703C4.41224 14.3148 6.28222 12.0779 9.30557 12.0914C10.2232 12.0948 12.5501 12.0914 15.0855 12.0914C15.7343 11.1332 16.2937 10.5057 17.045 9.89004C17.7962 9.2727 18.7395 8.66554 20.0007 8.50951C16.7817 8.5129 12.7786 8.50951 11.8025 8.50781C11.3254 8.50781 10.8483 8.50781 10.3713 8.50951C10.0605 8.50951 9.74791 8.50951 9.43719 8.5129C8.28742 8.52477 7.20713 8.66724 6.19264 8.98438C5.70092 9.13702 5.22384 9.33036 4.76137 9.5695C4.29526 9.81033 3.84559 10.0953 3.40872 10.4328C1.90983 11.5911 0.977588 12.936 0.641253 14.5743C0.63577 14.5998 0.633941 14.6235 0.628458 14.649C-0.099051 18.3479 1.34317 20.8122 4.51095 22.7761C5.83621 23.597 7.47036 23.943 9.12461 23.9209C11.2176 23.8921 13.146 23.5156 14.8624 22.286C15.2554 22.0045 15.6156 21.711 15.9446 21.4041C17.023 20.3966 17.756 19.24 18.1673 17.873C18.1764 17.8425 18.1819 17.812 18.1911 17.7815C18.4287 16.9148 18.372 16.0295 18.4031 15.1459C18.4122 14.8745 18.3629 14.6981 18.2221 14.5947C18.1033 14.5082 17.9242 14.4692 17.6518 14.476L17.65 14.4743Z" fill="#255C62"/>
<path d="M25.238 8.68224C24.9145 8.60592 24.5818 8.54825 24.2437 8.50755C23.8927 8.46515 23.5344 8.44141 23.1707 8.44141C22.8069 8.44141 22.4212 8.46685 22.0556 8.51264C19.5349 8.8247 17.3652 10.1798 16.0674 12.0946C15.636 12.7322 15.3015 13.0596 15.084 13.8024C15.3088 13.8024 15.5336 13.8024 15.7585 13.8024C15.8078 13.8024 15.859 13.8024 15.9083 13.8024C17.0874 13.8024 18.2682 13.8194 19.4472 13.7922C20.204 12.6169 21.5877 12.1963 23.1689 12.1963C25.5597 12.1963 27.5047 14.0009 27.5047 16.2192C27.5047 18.4375 25.5597 20.242 23.1689 20.242C21.7321 20.242 20.458 19.5908 19.6684 18.5902C19.471 18.3409 19.3028 18.0712 19.173 17.7829C19.1639 17.8134 19.1584 17.8439 19.1493 17.8745C18.738 19.2414 18.005 20.3981 16.9265 21.4055C17.0088 21.4903 17.0929 21.5717 17.1788 21.6531C18.7014 23.0981 20.8236 23.9987 23.1689 23.9987C27.7916 23.9987 31.5517 20.51 31.5517 16.2209C31.5517 12.5932 28.861 9.53871 25.2362 8.68224H25.238Z" fill="#255C62"/>
</g>
</g>
<defs>
<clipPath id="clip0_125_11680">
<rect width="31.1111" height="15.5556" fill="white" transform="translate(0.445312 8.44531)"/>
</clipPath>
</defs>
</svg>
