<svg width="88" height="17" viewBox="0 0 88 17" fill="none" xmlns="http://www.w3.org/2000/svg">
<path d="M4.56 16.1748H0.96V0.0948043H5.832L9.6 8.0148L11.112 11.7828H11.376L12.84 8.0148L16.488 0.0948043H21.384V16.1748H17.784V8.0148L17.904 5.4948H17.64L16.704 8.0148L13.344 15.2148H8.976L5.616 8.0148L4.68 5.4948H4.416L4.56 8.0148V16.1748ZM26.8725 16.1748H23.2725V4.1508H26.8725V16.1748ZM26.8725 2.9268H23.2725V0.0948043H26.8725V2.9268ZM42.0529 16.1748H38.4529V9.8868C38.4529 8.9108 38.2289 8.2148 37.7809 7.7988C37.3329 7.3668 36.5569 7.1508 35.4529 7.1508C34.3009 7.1508 33.4929 7.3908 33.0289 7.8708C32.5809 8.3348 32.3569 9.0788 32.3569 10.1028H31.9009L31.6369 7.8468H32.3089C32.4209 7.1748 32.6609 6.5428 33.0289 5.9508C33.3969 5.3428 33.9169 4.8548 34.5889 4.4868C35.2769 4.1028 36.1489 3.9108 37.2049 3.9108C38.2929 3.9108 39.1969 4.1268 39.9169 4.5588C40.6369 4.9748 41.1729 5.5428 41.5249 6.2628C41.8769 6.9828 42.0529 7.7908 42.0529 8.6868V16.1748ZM32.3569 16.1748H28.7569V4.1508H32.0929V7.8948L32.3569 8.0148V16.1748ZM49.2501 16.4148C48.0021 16.4148 46.9461 16.1588 46.0821 15.6468C45.2181 15.1348 44.5621 14.4148 44.1141 13.4868C43.6661 12.5428 43.4421 11.4388 43.4421 10.1748C43.4421 8.8948 43.6581 7.7908 44.0901 6.8628C44.5381 5.9188 45.1781 5.1908 46.0101 4.6788C46.8581 4.1668 47.8741 3.9108 49.0581 3.9108C50.4821 3.9108 51.5781 4.2308 52.3461 4.8708C53.1141 5.5108 53.5941 6.3348 53.7861 7.3428H54.4581V10.0548H54.0021C54.0021 9.0148 53.6981 8.2788 53.0901 7.8468C52.4981 7.4148 51.6261 7.1988 50.4741 7.1988C49.7061 7.1988 49.0661 7.2948 48.5541 7.4868C48.0581 7.6788 47.6901 7.9908 47.4501 8.4228C47.2101 8.8388 47.0901 9.4228 47.0901 10.1748C47.0901 10.8948 47.2101 11.4708 47.4501 11.9028C47.6901 12.3348 48.0581 12.6468 48.5541 12.8388C49.0661 13.0308 49.7061 13.1268 50.4741 13.1268C51.2421 13.1268 51.8821 13.0308 52.3941 12.8388C52.9221 12.6468 53.3221 12.3428 53.5941 11.9268C53.8661 11.4948 54.0021 10.9348 54.0021 10.2468H54.4581L54.6981 12.8388H54.0501C53.8261 14.0228 53.3141 14.9188 52.5141 15.5268C51.7141 16.1188 50.6261 16.4148 49.2501 16.4148ZM57.6021 16.1748H54.2421V12.6228L54.0021 12.3108V0.0948043H57.6021V16.1748ZM65.9149 16.4148C64.5549 16.4148 63.3629 16.1588 62.3389 15.6468C61.3149 15.1348 60.5229 14.4148 59.9629 13.4868C59.4189 12.5428 59.1469 11.4388 59.1469 10.1748C59.1469 8.8948 59.4189 7.7908 59.9629 6.8628C60.5229 5.9188 61.3149 5.1908 62.3389 4.6788C63.3629 4.1668 64.5549 3.9108 65.9149 3.9108C67.2109 3.9108 68.3469 4.1268 69.3229 4.5588C70.2989 4.9908 71.0589 5.5988 71.6029 6.3828C72.1469 7.1508 72.4189 8.0548 72.4189 9.0948V9.4308H68.8429V9.2388C68.8429 8.4708 68.5789 7.9348 68.0509 7.6308C67.5229 7.3108 66.7869 7.1508 65.8429 7.1508C64.7709 7.1508 63.9789 7.3748 63.4669 7.8228C62.9709 8.2708 62.7229 9.0548 62.7229 10.1748C62.7229 11.2628 62.9709 12.0388 63.4669 12.5028C63.9789 12.9508 64.7709 13.1748 65.8429 13.1748C66.7869 13.1748 67.5229 13.0228 68.0509 12.7188C68.5789 12.3988 68.8429 11.8548 68.8429 11.0868V10.8948H72.4189V11.2308C72.4189 12.2708 72.1469 13.1828 71.6029 13.9668C71.0589 14.7348 70.2989 15.3348 69.3229 15.7668C68.3469 16.1988 67.2109 16.4148 65.9149 16.4148ZM80.3758 16.4148C79.0158 16.4148 77.8158 16.1588 76.7758 15.6468C75.7518 15.1348 74.9518 14.4148 74.3758 13.4868C73.7998 12.5428 73.5118 11.4388 73.5118 10.1748C73.5118 8.8948 73.7998 7.7908 74.3758 6.8628C74.9518 5.9188 75.7518 5.1908 76.7758 4.6788C77.8158 4.1668 79.0158 3.9108 80.3758 3.9108C81.7518 3.9108 82.9518 4.1668 83.9758 4.6788C84.9998 5.1908 85.7998 5.9188 86.3758 6.8628C86.9518 7.7908 87.2398 8.8948 87.2398 10.1748C87.2398 11.4388 86.9518 12.5428 86.3758 13.4868C85.7998 14.4148 84.9998 15.1348 83.9758 15.6468C82.9518 16.1588 81.7518 16.4148 80.3758 16.4148ZM80.3758 13.2228C81.5918 13.2228 82.4398 12.9828 82.9198 12.5028C83.4158 12.0068 83.6638 11.2308 83.6638 10.1748C83.6638 9.1028 83.4158 8.3188 82.9198 7.8228C82.4398 7.3268 81.5918 7.0788 80.3758 7.0788C79.1598 7.0788 78.3038 7.3268 77.8078 7.8228C77.3278 8.3188 77.0878 9.1028 77.0878 10.1748C77.0878 11.2308 77.3278 12.0068 77.8078 12.5028C78.3038 12.9828 79.1598 13.2228 80.3758 13.2228Z" fill="white"/>
</svg>
