<svg width="72" height="37" viewBox="0 0 72 37" fill="none" xmlns="http://www.w3.org/2000/svg">
<g clip-path="url(#clip0_93_27929)">
<path d="M39.8206 14.3452C37.0201 14.4178 34.2112 14.3694 31.4107 14.3735C31.2965 14.3735 31.1781 14.3735 31.0638 14.3735C28.0138 14.3735 24.9595 14.4017 21.9137 14.3573C20.8265 14.3372 20.4161 14.6559 20.45 15.6361C20.5177 17.4676 20.5346 19.299 20.4373 21.1305C20.3781 22.3165 20.9492 22.5827 22.1548 22.5504C24.4222 22.498 26.6939 22.5343 28.9698 22.5545C29.4606 22.5585 30.1374 22.3165 30.3955 22.8005C30.645 23.2806 30.2474 23.7687 29.9597 24.2165C29.0883 25.5961 27.5611 26.2698 26.1101 27.008C18.669 30.7758 9.29886 25.9269 9.22694 18.3793C9.18464 13.966 13.5123 8.64517 20.5092 8.67744C22.6328 8.68551 28.018 8.67744 33.8855 8.67744C35.3872 6.39822 36.6817 4.90564 38.4204 3.44129C40.159 1.97291 42.3419 0.528728 45.2608 0.157598C37.8112 0.165666 28.5468 0.157598 26.2878 0.153564C25.1837 0.153564 24.0796 0.153564 22.9755 0.157598C22.2563 0.157598 21.5329 0.157598 20.8138 0.165667C18.1529 0.193905 15.6528 0.532762 13.305 1.28712C12.167 1.65018 11.0629 2.11006 9.99263 2.67886C8.9139 3.25169 7.87324 3.9294 6.8622 4.73217C3.39334 7.48741 1.23587 10.6864 0.457496 14.5832C0.444805 14.6438 0.440574 14.7002 0.427883 14.7607C-1.25578 23.5589 2.08194 29.4204 9.41308 34.0917C12.4801 36.0442 16.262 36.8672 20.0904 36.8147C24.9341 36.7461 29.3971 35.8506 33.3694 32.9259C34.2789 32.2563 35.1123 31.5584 35.8737 30.8282C38.3696 28.432 40.066 25.6808 41.0178 22.4294C41.0389 22.3568 41.0516 22.2842 41.0728 22.2116C41.6227 20.1502 41.4916 18.0444 41.5635 15.9427C41.5846 15.2973 41.4704 14.8777 41.1447 14.6317C40.8697 14.4259 40.4551 14.3331 39.8248 14.3493L39.8206 14.3452Z" fill="white"/>
<path d="M57.3798 0.56868C56.631 0.387149 55.8611 0.249993 55.0785 0.153176C54.2663 0.0523258 53.4371 -0.00415039 52.5953 -0.00415039C51.7535 -0.00415039 50.8609 0.0563599 50.0148 0.165278C44.1812 0.907537 39.1598 4.13072 36.1563 8.68512C35.1579 10.2019 34.3838 10.9805 33.8804 12.7474C34.4007 12.7474 34.921 12.7474 35.4414 12.7474C35.5556 12.7474 35.674 12.7474 35.7882 12.7474C38.5168 12.7474 41.2496 12.7877 43.9781 12.7232C45.7295 9.9276 48.9318 8.92716 52.5911 8.92716C58.1243 8.92716 62.6254 13.2194 62.6254 18.4959C62.6254 23.7723 58.1243 28.0645 52.5911 28.0645C49.266 28.0645 46.3175 26.5155 44.49 24.1354C44.0331 23.5424 43.6439 22.901 43.3436 22.2152C43.3224 22.2878 43.3097 22.3604 43.2886 22.4331C42.3368 25.6845 40.6404 28.4357 38.1445 30.8319C38.3349 31.0336 38.5295 31.2272 38.7283 31.4208C42.2522 34.8578 47.1636 36.9999 52.5911 36.9999C63.2895 36.9999 71.9913 28.7019 71.9913 18.4999C71.9913 9.87112 65.7643 2.60586 57.3756 0.56868H57.3798Z" fill="white"/>
</g>
<defs>
<clipPath id="clip0_93_27929">
<rect width="72" height="37" fill="white"/>
</clipPath>
</defs>
</svg>
